<svg xmlns="http://www.w3.org/2000/svg" viewBox="0 0 512 512"><path d="M512 256c0-52.169-15.763-100.691-42.667-141.203V53.333a10.66 10.66 0 00-10.667-10.667h-61.464C356.693 15.764 308.172 0 256 0S155.307 15.764 114.797 42.667H53.333a10.66 10.66 0 00-10.667 10.667v61.464C15.763 155.309 0 203.831 0 256s15.763 100.691 42.667 141.203v61.464a10.66 10.66 0 0010.667 10.667h61.464C155.307 496.236 203.828 512 256 512s100.693-15.764 141.203-42.667h61.464a10.66 10.66 0 0010.667-10.667v-61.464C496.237 356.691 512 308.169 512 256z" fill="#303c42"/><path d="M21.333 256C21.333 126.604 126.604 21.333 256 21.333S490.667 126.604 490.667 256 385.396 490.667 256 490.667 21.333 385.396 21.333 256z" fill="#0288d1"/><path d="M35.556 276.444c0-129.396 105.271-234.667 234.667-234.667 75.158 0 142.001 35.655 184.98 90.784C413.759 65.927 340.081 21.333 256 21.333 126.604 21.333 21.333 126.604 21.333 256c0 54.238 18.671 104.098 49.686 143.883-22.337-35.913-35.463-78.124-35.463-123.439z" opacity=".1"/><path d="M426.354 114.854A10.64 10.64 0 00416 106.666h-85.333c-4.375 0-8.292 2.698-9.896 6.76-1.604 4.073-.542 8.729 2.646 11.729 1.875 1.76 7.25 8.042 7.25 13.292-.5 8.021-16.708 75.583-31.417 135.042l-32.833-147.802c-1.084-4.885-5.417-8.354-10.417-8.354s-9.334 3.469-10.417 8.354L212.75 273.5c-14.708-59.458-30.917-126.99-31.417-134.833 0-5.469 5.375-11.75 7.208-13.469a10.64 10.64 0 002.729-11.729 10.65 10.65 0 00-9.938-6.802H96a10.639 10.639 0 00-10.354 8.188 10.69 10.69 0 005.542 12c3.479 1.771 13.146 8.052 16.25 15.771 6.521 16.313 62.083 228.719 63.229 241.302-.313 3.896-8.938 15.531-18.083 24.417a10.63 10.63 0 00-2.458 11.667 10.66 10.66 0 009.875 6.656h74.667c3.021 0 5.896-1.281 7.917-3.521a10.7 10.7 0 002.688-8.25c-1.479-14.344-2.083-33.094-.417-38.385 1.625-5.208 6.458-24.479 11.146-43.469 4.688 18.99 9.521 38.26 11.146 43.469 1.667 5.281 1.063 24.042-.417 38.385-.313 3 .667 6 2.688 8.25a10.662 10.662 0 007.917 3.521H352a10.66 10.66 0 009.875-6.656 10.631 10.631 0 00-2.458-11.667c-9.146-8.885-17.771-20.521-18.104-23.938 1.167-13.063 56.729-225.469 63.25-241.781 3.104-7.719 12.771-14 16.25-15.771a10.691 10.691 0 005.541-12.001z" fill="#303c42"/><path d="M384.771 134.708C379.708 147.344 320 370.156 320 384c0 6.771 3.854 14.406 8.688 21.333h-39.771c.729-11.229 1.146-27.021-1.396-35.177-2.646-8.479-16.167-63.979-21.146-84.656-2.333-9.583-18.417-9.583-20.75 0-4.979 20.677-18.5 76.177-21.146 84.656-2.542 8.156-2.125 23.948-1.396 35.177h-39.771C188.146 398.406 192 390.771 192 384c0-13.844-59.708-236.656-64.771-249.292-.938-2.385-2.125-4.625-3.458-6.708h38.104c-1.146 3.271-1.875 6.865-1.875 10.667 0 11.948 32.896 143.802 42.979 183.938 1.208 4.781 6.021 8.708 10.5 8.063a10.688 10.688 0 0010.271-8.354L256 177.167l32.25 145.146a10.687 10.687 0 0010.271 8.354h.146c4.875 0 9.146-3.323 10.354-8.063C319.104 282.469 352 150.615 352 138.667c0-3.802-.729-7.396-1.875-10.667h38.104c-1.333 2.083-2.521 4.323-3.458 6.708zM448 64v23.236A258.13 258.13 0 00424.764 64H448zM64 64h23.236A258.13 258.13 0 0064 87.236V64zm0 384v-23.236A258.13 258.13 0 0087.236 448H64zm384 0h-23.236A258.13 258.13 0 00448 424.764V448z" fill="#ffca28"/><linearGradient id="a" gradientUnits="userSpaceOnUse" x1="-39.073" y1="639.83" x2="-26.441" y2="627.197" gradientTransform="matrix(21.3333 0 0 -21.3333 996.333 13791.667)"><stop offset="0" stop-opacity=".1"/><stop offset="1" stop-opacity="0"/></linearGradient><path d="M468.423 156.923l-42.069-42.069a10.69 10.69 0 01-5.542 12c-3.479 1.771-13.146 8.052-16.25 15.771-6.521 16.313-62.083 228.719-63.25 241.781.333 3.417 8.958 15.052 18.104 23.938a10.63 10.63 0 012.458 11.667 10.66 10.66 0 01-9.875 6.656h-74.667a10.662 10.662 0 01-7.917-3.521 10.7 10.7 0 01-2.688-8.25c1.479-14.344 2.083-33.104.417-38.385-1.625-5.208-6.458-24.479-11.146-43.469-4.688 18.99-9.521 38.26-11.146 43.469-1.667 5.292-1.063 24.042.417 38.385.313 3-.667 6-2.688 8.25a10.662 10.662 0 01-7.917 3.521H160c-1.688 0-3.186-.693-4.637-1.418l61.951 61.951c12.616 2.107 25.482 3.467 38.686 3.467 129.396 0 234.667-105.271 234.667-234.667 0-35.434-8.121-68.928-22.244-99.077zM299.25 273.49c8.113-32.797 16.669-68.013 22.807-94.388l-58.944-58.945-.003.008c1.59 1.441 2.814 3.305 3.306 5.523L299.25 273.49zm-61.318-113.36l-46.661-46.661a10.64 10.64 0 01-2.729 11.729c-1.833 1.719-7.208 8-7.208 13.469.5 7.844 16.708 75.375 31.417 134.833l25.181-113.37z" fill="url(#a)"/><linearGradient id="b" gradientUnits="userSpaceOnUse" x1="-46.598" y1="640.032" x2="-22.808" y2="628.937" gradientTransform="matrix(21.3333 0 0 -21.3333 996.333 13791.667)"><stop offset="0" stop-color="#fff" stop-opacity=".2"/><stop offset="1" stop-color="#fff" stop-opacity="0"/></linearGradient><path d="M512 256c0-52.169-15.763-100.691-42.667-141.203V53.333a10.66 10.66 0 00-10.667-10.667h-61.464C356.693 15.764 308.172 0 256 0S155.307 15.764 114.797 42.667H53.333a10.66 10.66 0 00-10.667 10.667v61.464C15.763 155.309 0 203.831 0 256s15.763 100.691 42.667 141.203v61.464a10.66 10.66 0 0010.667 10.667h61.464C155.307 496.236 203.828 512 256 512s100.693-15.764 141.203-42.667h61.464a10.66 10.66 0 0010.667-10.667v-61.464C496.237 356.691 512 308.169 512 256z" fill="url(#b)"/></svg>